<svg xmlns="http://www.w3.org/2000/svg" viewBox="0 0 238.1 178.1"><path fill="none" stroke="#000" stroke-linejoin="round" stroke-opacity=".1" stroke-width="10.6" d="M152.4 27.1h-.7c-11.5 1-17.4 13-16.3 20.5a17 17 0 0 0 10 15.4l-4.4 1c.3 23 .5 46-1 67.8-7-4.5-14.8-7.5-23-8.8 45-25.8 0-74.8-14.4-84.9l1.6-6.2c-19.1.4-38 4.3-55.6 11.6-2.1 11.8-4 21-4.6 32.1L35.4 77a105 105 0 0 0-.6 19l8.7-1.3c.2 27.3 4.8 52.6 12.8 76.3L82 156.8c-11-20-17.4-42.3-18.7-65 7-1 13-1.6 18.4-2 .2-6.4.8-13.6 1.6-20-6.9.9-13.7 2.3-20.3 3.2 0-4.6.3-9.9.7-14.5 10-3.8 20.6-6 31.3-6.3-5 18.7-7.3 38-6.7 57.4l-7.4.1 2.4 19 6.5 1.5c.7 7 1.6 14 2.6 20.8l17.2-3.2c-1.2-4.4-2.2-8.8-3-13.2a36.8 36.8 0 0 1 24.6 23l6.4-3.3c-.5 3.4-1 6.9-1.8 10.4l29.4-10c-.8-10.5-1-21-1.1-31.5a107 107 0 0 0 22.2 33.8c26.5-32.3 31.8-78.4 27.6-129.8l-24.8 12.3c7.4 29.4 6.1 60.2-3.5 88.9a108.7 108.7 0 0 1-10.9-62.2l-9.4 3 .4-11.2-3.2.7c3.8-4 5.7-9.5 5.5-15-.7-11.8-8.7-16.7-15.6-16.6zm74.3.7a4 4 0 0 0-3.9 4 4 4 0 0 0 4 3.8 4 4 0 0 0 3.9-4 4 4 0 0 0-4-3.8zm-116.9 38c8.2 8.8 25.1 39.9-5.5 43.4-.4-15.2 1.5-30 5.5-43.3z"/><path fill="#6b1414" d="m785.8 47.4-.9 20.8-91.1 45a20 20 0 0 0-10.6 22.8 575.1 575.1 0 0 1 2.4 269.8 390.6 390.6 0 0 1-17.4-171.3 20 20 0 0 0-5.4-16.2 168.2 168.2 0 0 0-20.1-19.7l-8.6 8.1.2-5a20 20 0 0 0-1.6-8.5 97.8 97.8 0 0 0 10.2-47.4 89.8 89.8 0 0 0-19-51.9c-5.8-10-33.6-35.7-38.4-37.3l-3 10.2a70.4 70.4 0 0 0-18.9-2.4 77.1 77.1 0 0 0-4 .2 86.3 86.3 0 0 0-63.3 38 88.8 88.8 0 0 0-16.4 60.6 87.3 87.3 0 0 0 22 54.3 20 20 0 0 0-1 6.6v22.7a393.4 393.4 0 0 0-102.7-128.1l3-11.3a20 20 0 0 0-3.4-17l-.6-.6a263 263 0 0 0-23-23l-13.8 16.4a606.7 606.7 0 0 0-196.3 44.4 20 20 0 0 0-12 15c-6.9 38.7-12.8 71.3-16 107.8l-17.6 2.8a20 20 0 0 0-16.6 17.3c-2.8 22-3.5 44-2.7 65.8l-15.6.5c4.7 6.3 10.7 15 23.4 23.5a20 20 0 0 0 15.5 4.2l11.1-1.6c3 89.8 17.6 174.5 42.8 254.1l-14-1.7c3.2 7.5 6.6 15.1 26.1 28.3a20 20 0 0 0 22.2 1.9l96.9-53.9a20 20 0 0 0 7.8-27l-4-7.6c3.5 3.9 7.8 7.6 13.5 11.1a20 20 0 0 0 16.3 4.2l65-12.5a20 20 0 0 0 15.5-25.1c-.8-2.7-1.2-5.4-2-8.1 20.5 14 36.8 33.6 45.4 57.6a20 20 0 0 0 8.3 10.2l-7.7 2.3c7 8.4 13 17 25 24.4h.1a20 20 0 0 0 17 2l111-38.1a20 20 0 0 0 13.6-20.4c-.6-8.2-.7-16.6-1-24.9 14.4 19 30.8 34 46.4 49.4 8.6 7.2 22.2 8 29.8-1.3 97.8-119.4 121-283.8 111.2-464.2 6.6 7.8 16 13 26.8 12.9 19-.4 34.6-16.5 34.3-35.5-.1-7.2-2.6-14-6.6-19.6-.7-3-27-28.4-29-28.6l-.6 14c-8.5.4-16 4-21.7 9.5a513 513 0 0 0-36.2-29zM321.5 201c-2.2 9.6-4.7 19.1-6.5 28.8a20 20 0 0 0-14.3-3.8c-18.8 2.2-36 5.2-53.3 8.1l.7-16.7c23.9-8 48.4-13.7 73.4-16.4zm90.4 78.2a149.3 149.3 0 0 1 16 43.6c2.2 14.3.4 25.3-5.4 33.2-3.7 5-10 9.7-20.1 13.3.6-31 3.7-61.2 9.5-90zM302 340.5c-.5 12-.3 23.9-.2 35.8l-8.4.2A20 20 0 0 0 274 399l9.1 71.5a20 20 0 0 0 15.4 17l10.8 2.5c2.1 18.7 4.3 37.2 7 55.4l-11.4-.9a557 557 0 0 1-55.3-198.2c17.1-2 34.5-4 49-5.2a20 20 0 0 0 3.5-.6zm198.3 69c-.4 12.7-1 25.2-1.7 37.7a243 243 0 0 0-22.9-9.3c9.9-9 18-18.5 24.6-28.4z" color="#000" font-family="sans-serif" font-weight="400" overflow="visible" style="line-height:normal;font-variant-ligatures:normal;font-variant-position:normal;font-variant-caps:normal;font-variant-numeric:normal;font-variant-alternates:normal;font-feature-settings:normal;text-indent:0;text-align:start;text-decoration-line:none;text-decoration-style:solid;text-decoration-color:#000;text-transform:none;text-orientation:mixed;white-space:normal;shape-padding:0;isolation:auto;mix-blend-mode:normal;solid-color:#000;solid-opacity:1" transform="scale(.2646)"/><path fill="#621212" d="m818 100.9-53.8.4c2 .3 37.2 19.2 55 28.8l-.4-6.5a40 40 0 0 0 9 7.9zm-470.9 41S199.4 178.6 195.5 179c0 0-.4 73-1.7 79.4-1.2 6.4 135.4-11 135.4-11zm293.4 29.6L572 198.7l47.4 35.4 14.8-31.5v-1a20 20 0 0 0-1.6-8.4 104 104 0 0 0 7.8-21.7zm-319 29.6c-2.2 9.6-4.7 19.1-6.5 28.8a20 20 0 0 0-14.3-3.8c-18.8 2.2-36 5.2-53.3 8.1l.7-16.7c23.9-8 48.4-13.7 73.4-16.4zm38.4 21.5s-20.5 184.4-21.3 187c-.9 2.5 99-24.8 99-24.8L434.2 258s-72.6-35-74.3-35.4zm52 56.7a149.3 149.3 0 0 1 16 43.6c2.2 14.3.4 25.3-5.4 33.2-3.7 5-10 9.7-20.1 13.3.6-31 3.7-61.2 9.5-90zM315 291.7 176.8 294l61 285.2 78-13.7-.4-.9-4-7.5c2 2.2 4.3 4.4 7 6.5l11.2-53.2-17.1 6.6c1.1 9.5 2.4 19 3.7 28.5l-11.3-.9c-3.4-7-6.7-14-9.8-21l-36-35.1-2.6-90.6a631 631 0 0 1-7-51.5c17.2-2 34.6-4 49-5.2a20 20 0 0 0 3.6-.6l-.2 7.4 11.9-.2zm300.1 14.1 40.2 161.8 50.3-89.2-12.8-10.3a597 597 0 0 1-7.3 37.7c-6-18-10.7-36.3-14-54.8zM361.6 481.3l60.9 58.9a20 20 0 0 0-.8-5.5c-.8-2.7-1.2-5.4-2-8.1 3 2 5.9 4.2 8.7 6.4l5.8-47zM641.7 492l-62.3 31.6 52.4 29.3-.3-13.2c3.2 4.2 6.5 8.2 9.8 12.1z" color="#000" font-family="sans-serif" font-weight="400" overflow="visible" style="line-height:normal;font-variant-ligatures:normal;font-variant-position:normal;font-variant-caps:normal;font-variant-numeric:normal;font-variant-alternates:normal;font-feature-settings:normal;text-indent:0;text-align:start;text-decoration-line:none;text-decoration-style:solid;text-decoration-color:#000;text-transform:none;text-orientation:mixed;white-space:normal;shape-padding:0;isolation:auto;mix-blend-mode:normal;solid-color:#000;solid-opacity:1" transform="scale(.2646)"/><path fill="#791817" d="m225.5 17.7-3 8.5 8.2 6.6a9.2 9.2 0 0 0 1.6-8.8c-3-3-6.8-6.5-6.8-6.3Zm-7.6 8.4-.4 2 5.6 8h.7a9 9 0 0 0 4.7-1.4L218 26zM204.7 29l-.5 5.5 13 16.2-.3-13.2-12.2-8.5zm.5 10.4-1.7 12.3 13 19.7c.5-5.7.7-11.6.7-17.6zm1.1 24.4c-5 0-9 15-9 33.6 0 14.4 2.4 27.1 6.1 31.8 5.8-13 9.5-27.2 11.6-42.3-1.3-13.8-4.8-23-8.7-23zM84.7 135.4l-2.2.1 1.1 8.8h-1.3l3 2.3 3.4 4.9h1.6l2.6-.6-8.2-9.3c1.5.5 9.2 8.7 10.5 8.9l7.6-1.5c2.1-4.8-7.2-10.4-9.1-11.3a23.5 23.5 0 0 0-9-2.3zm14.6 1.1 8 11.7h.2c1.3-.3 2.3-1 3.1-2-4-3.3-11-9.4-11.3-9.7zm76.6 3.5 14 12.1 3.1-4.3zm-20.4 2.1-2 1.2 8.2 12.2 2-.7a5.3 5.3 0 0 0 3.3-3.3 2598 2598 0 0 0-11.5-9.4zm21.1.6-2.1 2.1 10.4 12.3c.9-.3 1.7-.8 2.3-1.6l1.4-1.7-12-11.1zm-110.2 3.6c-2.8 0-4.8.7-5.4 2.2-1.4 3 2.8 7.8 9.4 10.9 1.1.5 2.3 1 3.5 1.3l7.5-4.1c.8-.5 1.5-1.2 2-2a22.6 22.6 0 0 0-8-6 25.4 25.4 0 0 0-9-2.3zm80.3 3.9c-6.2 0-11.5 2-12.8 4.7l-4-3.9c3 4.4 6 8.1 9.4 12.2l2.3-.8-10.1-12c.8 0 8.3-3 12 11.4l16.3-5.7c-8-2-6.9-5.8-13-6zm-99.6 2.7 16.7 13.4 4.4-2.4-21.1-11zm82.4 1.5-2 2 6.6 8.6.3-.1 2.6-1-7.5-9.5zm-83 2.1 8.5 14.7.7-.4 5.6-3-14.9-11.3z"/><path fill="none" stroke="#b05236" stroke-linejoin="round" stroke-width="10.6" d="M144 17.2h-.7c-11.5 1-17.4 13-16.3 20.5A17 17 0 0 0 137 53l-4.4 1c.2 23 .5 46-1 67.8-7-4.5-14.8-7.5-23-8.8 45-25.9 0-74.8-14.4-84.9l1.6-6.2c-19.1.4-38 4.3-55.6 11.5-2.1 12-4 21-4.6 32.2L27 67.1a105 105 0 0 0-.6 19l8.7-1.3c.2 27.3 4.8 52.6 12.8 76.3l25.7-14.3a153 153 0 0 1-18.7-65c7-1 13-1.5 18.4-2 .2-6.4.8-13.5 1.6-19.8-6.9.8-13.7 2.2-20.3 3 0-4.5.3-9.8.7-14.4 10-3.8 20.6-6 31.3-6.3-5 18.7-7.3 38-6.7 57.4l-7.4.1 2.4 19 6.5 1.4c.7 7.2 1.6 14 2.6 21l17.2-3.4c-1.2-4.3-2.2-8.7-3-13.1a36.8 36.8 0 0 1 24.6 23l6.4-3.3c-.5 3.4-1 6.9-1.8 10.3l29.4-10c-.8-10.5-1-21-1.1-31.4a107 107 0 0 0 22.2 33.8c26.5-32.3 31.8-78.5 27.6-129.8l-24.8 12.3a158 158 0 0 1-3.5 88.8 108.7 108.7 0 0 1-10.9-62.1l-9.4 3 .4-11.2-3.2.7c3.8-4 5.7-9.5 5.5-15-.7-11.8-8.7-16.7-15.6-16.6zm74.3.6a4 4 0 0 0-3.9 4 4 4 0 0 0 4 4 4 4 0 0 0 3.9-4 4 4 0 0 0-4-4zM101.4 56c8.2 8.7 25.1 39.9-5.5 43.4-.4-15.2 1.5-30 5.5-43.4z"/><path fill="none" stroke="#f5973f" stroke-linejoin="round" stroke-width="7.9" d="M144 17.2h-.7c-11.5 1-17.4 13-16.3 20.5A17 17 0 0 0 137 53l-4.4 1c.2 23 .5 46-1 67.8-7-4.5-14.8-7.5-23-8.8 45-25.9 0-74.8-14.4-84.9l1.6-6.2c-19.1.4-38 4.3-55.6 11.5-2.1 12-4 21-4.6 32.2L27 67.1a105 105 0 0 0-.6 19l8.7-1.3c.2 27.3 4.8 52.6 12.8 76.3l25.7-14.3a153 153 0 0 1-18.7-65c7-1 13-1.5 18.4-2 .2-6.4.8-13.5 1.6-19.8-6.9.8-13.7 2.2-20.3 3 0-4.5.3-9.8.7-14.4 10-3.8 20.6-6 31.3-6.3-5 18.7-7.3 38-6.7 57.4l-7.4.1 2.4 19 6.5 1.4c.7 7.2 1.6 14 2.6 21l17.2-3.4c-1.2-4.3-2.2-8.7-3-13.1a36.8 36.8 0 0 1 24.6 23l6.4-3.3c-.5 3.4-1 6.9-1.8 10.3l29.4-10c-.8-10.5-1-21-1.1-31.4a107 107 0 0 0 22.2 33.8c26.5-32.3 31.8-78.5 27.6-129.8l-24.8 12.3a158 158 0 0 1-3.5 88.8 108.7 108.7 0 0 1-10.9-62.1l-9.4 3 .4-11.2-3.2.7c3.8-4 5.7-9.5 5.5-15-.7-11.8-8.7-16.7-15.6-16.6zm74.3.6a4 4 0 0 0-3.9 4 4 4 0 0 0 4 4 4 4 0 0 0 3.9-4 4 4 0 0 0-4-4zM101.4 56c8.2 8.7 25.1 39.9-5.5 43.4-.4-15.2 1.5-30 5.5-43.4z"/><path fill="none" stroke="#fcbf17" stroke-linejoin="round" stroke-width="5.3" d="M144 17.2h-.7c-11.5 1-17.4 13-16.3 20.5A17 17 0 0 0 137 53l-4.4 1c.2 23 .5 46-1 67.8-7-4.5-14.8-7.5-23-8.8 45-25.9 0-74.8-14.4-84.9l1.6-6.2c-19.1.4-38 4.3-55.6 11.5-2.1 12-4 21-4.6 32.2L27 67.1a105 105 0 0 0-.6 19l8.7-1.3c.2 27.3 4.8 52.6 12.8 76.3l25.7-14.3a153 153 0 0 1-18.7-65c7-1 13-1.5 18.4-2 .2-6.4.8-13.5 1.6-19.8-6.9.8-13.7 2.2-20.3 3 0-4.5.3-9.8.7-14.4 10-3.8 20.6-6 31.3-6.3-5 18.7-7.3 38-6.7 57.4l-7.4.1 2.4 19 6.5 1.4c.7 7.2 1.6 14 2.6 21l17.2-3.4c-1.2-4.3-2.2-8.7-3-13.1a36.8 36.8 0 0 1 24.6 23l6.4-3.3c-.5 3.4-1 6.9-1.8 10.3l29.4-10c-.8-10.5-1-21-1.1-31.4a107 107 0 0 0 22.2 33.8c26.5-32.3 31.8-78.5 27.6-129.8l-24.8 12.3a158 158 0 0 1-3.5 88.8 108.7 108.7 0 0 1-10.9-62.1l-9.4 3 .4-11.2-3.2.7c3.8-4 5.7-9.5 5.5-15-.7-11.8-8.7-16.7-15.6-16.6zm74.3.6a4 4 0 0 0-3.9 4 4 4 0 0 0 4 4 4 4 0 0 0 3.9-4 4 4 0 0 0-4-4zM101.4 56c8.2 8.7 25.1 39.9-5.5 43.4-.4-15.2 1.5-30 5.5-43.4z"/><path fill="none" stroke="#fef26c" stroke-linejoin="round" stroke-width="2.6" d="M144 17.2h-.7c-11.5 1-17.4 13-16.3 20.5A17 17 0 0 0 137 53l-4.4 1c.2 23 .5 46-1 67.8-7-4.5-14.8-7.5-23-8.8 45-25.9 0-74.8-14.4-84.9l1.6-6.2c-19.1.4-38 4.3-55.6 11.5-2.1 12-4 21-4.6 32.2L27 67.1a105 105 0 0 0-.6 19l8.7-1.3c.2 27.3 4.8 52.6 12.8 76.3l25.7-14.3a153 153 0 0 1-18.7-65c7-1 13-1.5 18.4-2 .2-6.4.8-13.5 1.6-19.8-6.9.8-13.7 2.2-20.3 3 0-4.5.3-9.8.7-14.4 10-3.8 20.6-6 31.3-6.3-5 18.7-7.3 38-6.7 57.4l-7.4.1 2.4 19 6.5 1.4c.7 7.2 1.6 14 2.6 21l17.2-3.4c-1.2-4.3-2.2-8.7-3-13.1a36.8 36.8 0 0 1 24.6 23l6.4-3.3c-.5 3.4-1 6.9-1.8 10.3l29.4-10c-.8-10.5-1-21-1.1-31.4a107 107 0 0 0 22.2 33.8c26.5-32.3 31.8-78.5 27.6-129.8l-24.8 12.3a158 158 0 0 1-3.5 88.8 108.7 108.7 0 0 1-10.9-62.1l-9.4 3 .4-11.2-3.2.7c3.8-4 5.7-9.5 5.5-15-.7-11.8-8.7-16.7-15.6-16.6zm74.3.6a4 4 0 0 0-3.9 4 4 4 0 0 0 4 4 4 4 0 0 0 3.9-4 4 4 0 0 0-4-4zM101.4 56c8.2 8.7 25.1 39.9-5.5 43.4-.4-15.2 1.5-30 5.5-43.4z"/><path fill="#076700" d="M144 17.2h-.7c-11.5 1-17.4 13-16.3 20.5A17 17 0 0 0 137 53l-4.4 1c.2 23 .5 46-1 67.8-7-4.5-14.8-7.5-23-8.8 45-25.9 0-74.8-14.4-84.9l1.6-6.2c-19.1.4-38 4.3-55.6 11.5-2.1 12-4 21-4.6 32.2L27 67.1a105 105 0 0 0-.6 19l8.7-1.3c.2 27.3 4.8 52.6 12.8 76.3l25.7-14.3a153 153 0 0 1-18.7-65c7-1 13-1.5 18.4-2 .2-6.4.8-13.5 1.6-19.8-6.9.8-13.7 2.2-20.3 3 0-4.5.3-9.8.7-14.4 10-3.8 20.6-6 31.3-6.3-5 18.7-7.3 38-6.7 57.4l-7.4.1 2.4 19 6.5 1.4c.7 7.2 1.6 14 2.6 21l17.2-3.4c-1.2-4.3-2.2-8.7-3-13.1a36.8 36.8 0 0 1 24.6 23l6.4-3.3c-.5 3.4-1 6.9-1.8 10.3l29.4-10c-.8-10.5-1-21-1.1-31.4a107 107 0 0 0 22.2 33.8c26.5-32.3 31.8-78.5 27.6-129.8l-24.8 12.3a158 158 0 0 1-3.5 88.8 108.7 108.7 0 0 1-10.9-62.1l-9.4 3 .4-11.2-3.2.7c3.8-4 5.7-9.5 5.5-15-.7-11.8-8.7-16.7-15.6-16.6zm74.4.6a4 4 0 0 0-4 4 4 4 0 0 0 4 4 4 4 0 0 0 4-4 4 4 0 0 0-4-4zM101.4 56c8.2 8.7 25.1 39.9-5.5 43.4-.4-15.2 1.5-30 5.5-43.4z"/><circle cx="146" cy="36.4" r=".9" fill="none" transform="rotate(-1)"/><path fill="#098100" d="M143.6 18.6c-11.8 1-19 15-14 25.3a17 17 0 0 0 6.9 7.1c.6.3 2.1.8 2.3 1.6.2 2.4-4.8 1.3-4.6 5.2.4 8.7 0 17 .4 25.4 0 13-.4 37.2-1.1 40.1-.4.8-.8 1.2-3.8-.7-5.8-3.5-17-7.4-22.6-8.1-3.6-.3 2.2-3.6 3.6-4.6 10.4-6.8 18.7-20 16-32.3-5-24.5-27.7-42.4-33.3-48.4-1.6-1.6 1.5-5.8-1.6-5.7-18 1-46.5 8.3-49.6 11.6C40 39.7 38 54.5 37 65c-.2 1 0 1.4-1.9 1.7-1.8.3-7.2.4-7.4 2.7-.6 5.5-.5 7.5-.5 13.4 0 1.3.6 2.1 2.2 1.8.8-.1 3.5-.8 5.3-1 2.2-.4 2.4.4 2.3 2.5.2 25.1 6.8 60.5 11.2 69.7.8 1.6 2.3 1.8 3.3 1.2 3.1-1.5 11.2-6 17.9-9.7 2-1.1.5-4 0-4.8a130.6 130.6 0 0 1-16.2-59.7c0-1.2-.2-2.1 1.7-2.4 1.8-.3 7.8-.9 10.9-1.2 3.7-.4 5.7.2 6-2L73 64.6c.4-3-1-2.6-2-2.6a663 663 0 0 1-15.5 2.6c-2.8.4-2.8-1.6-2.7-3 0-1.5.8-7 1.3-11.2.3-4.1.6-3 7.6-5.2 8.6-2.3 16.5-3.8 25-4 1.7 0 .7 1.8.7 2.2a261.7 261.7 0 0 0-6 55.6c0 1.3-.1 2-1.2 2-1.1.2-4 0-4.6 0-1.3-.1-1.5 1.3-1.4 2 .5 5.5.6 8.1 1.7 13.4.2 1 .4 1.6 1.3 1.8.8.2 3 .5 3.7.8 1.3.4 1.7.9 2 3.4.2 3 1.2 12.9 2 15.7.4 1 .5 1.4 1.8 1.4l12.2-2.4c.7-.1 1-.7.6-1.7l-1.1-4.8-1.1-5c-.4-1.4.6-2.2 1.8-1.8 2.5.4 5 1.7 7.9 3.3a45 45 0 0 1 16.5 16.9c1 2.2 2 .9 2.8.1 1.6-1.4 2.4-2.9 4.3-.8.9 1.6-.6 4.1-1 7-.1 1.6.2 2.3 2.4 1.5l10-3.5 10.3-3.6c2.2-.8 2.6-1.5 2.5-3.2-.7-10.2 0-18.7-.2-28.9.1-4 2.9 1 4 3.4 3.1 5.5 13.6 22 17 26.1 2.3 2.7 3.4.3 4.3-.7 18.8-23.2 23.3-50.5 25.7-83.4.5-13 0-22.8-1-35.9-.2-2-1.8-2-4.2-.4l-6.7 3.5c-1.8 1-6.9 3.3-8.7 4.2-1.7 1-1.7 2.5-1.3 4 6.7 23.2 5.1 58.3-5.4 85.3-1.3 2.8-1.6 1.1-2.4 0-8.8-13.8-12.5-38.4-11.6-57.4 0-1.1-.6-2.6-2.3-1.9-1.8.8-5 1.9-6.2.9-1.2-.6-.1-6.7.1-8.8.2-1.6-.8-1.7-1.4-1.5-2.9.2-1.4-1.9-.2-3.1 6.7-7.8 5.5-21.8-4.4-27a11.4 11.4 0 0 0-6.3-1.3zm74.6.2c-4.2.1-2.8 7.3 1.2 5.8 3-1 2.3-6.5-1.2-5.8zM101.7 54.7c2.7 1.5 3.2 3.5 6 7.9 5 7.9 9.4 18.3 6.3 27.5-2.8 6.7-10.9 11-17.8 11.4-1.3-.2-1.7.4-1.9-2-.8-13.2 2.1-32.7 6-44.4.2-.5 1-.7 1.4-.4z"/><path fill="#fff" fill-opacity=".2" d="M144.4 18.6h-.8c-8.4.7-14.4 7.9-15.5 15.7a16 13.6 0 0 0 15.2 9.2 16 13.6 0 0 0 15.2-9.4 16.5 16.5 0 0 0-8.6-14.1 10.9 10.9 0 0 0-5.5-1.4zm74.4.1a3 3 0 0 0-.6 0c-4.2.2-2.8 7.4 1.2 5.9 2.9-.9 2.4-5.8-.6-5.9zm-15.5 1.8c-.7 0-1.7.4-3 1.2-1.6 1-5 2.6-6.6 3.5-1.8 1-6.9 3.3-8.7 4.2-1.7 1-1.7 2.5-1.3 4l1.4 5.8a16 13.6 0 0 0 9.9 2.9 16 13.6 0 0 0 10.6-3.5l-1-16.5c-.1-1-.6-1.5-1.3-1.6zm-111.5 3c-18 1-46.5 8.3-49.6 11.6-.8 1.6-1.5 4.4-2.2 7.9a16 13.6 0 0 0 14 7 16 13.6 0 0 0 .1 0c.3-3.6.9-2.8 7.6-4.8 8.6-2.3 16.5-3.8 25-4 1.7 0 .7 1.8.7 2.2l-.5 2.2a16 13.6 0 0 0 3 .3 16 13.6 0 0 0 13.7-6.7c-4.5-4.6-8.3-8-10.2-10-1.6-1.6 1.5-5.8-1.6-5.7z"/><path fill="#fff" fill-opacity=".1" d="M144.4 18.6h-.8c-11.8 1-19 15-14 25.3a17 17 0 0 0 6.9 7.1c.6.3 2.1.8 2.3 1.6.2 2.4-4.8 1.3-4.6 5.2.4 8.7 0 17 .4 25.4l-.3 24.7c12-1.3 23.5-3.7 34.2-7a132.7 132.7 0 0 1-4.3-36.9v-.7a116 116 0 0 1 0-2.3v-.7h-.1v-.1a2.1 2.1 0 0 0-.2-.3v-.2h-.1l-.2-.2h-.1v-.1a1.2 1.2 0 0 0-.4-.1h-.8l-.3.1-.8.3-.1.1a21.4 21.4 0 0 1-1.4.5h-.3l-.5.2h-.4c-1.1.2-2.1.2-2.7-.2-1.2-.6-.1-6.7.1-8.8.2-1.6-.8-1.7-1.4-1.5-2.9.2-1.4-1.9-.2-3.1 6.7-7.8 5.5-21.8-4.4-27a10.9 10.9 0 0 0-5.5-1.3zm74.4.1a3 3 0 0 0-.6 0c-4.2.2-2.8 7.4 1.2 5.9 2.9-.9 2.4-5.8-.6-5.9zm-15.5 1.8c-.7 0-1.7.4-3 1.2-1.6 1-5 2.6-6.6 3.5-1.8 1-6.9 3.3-8.7 4.2-1.7 1-1.7 2.5-1.3 4a143 143 0 0 1 1.3 61.5c6.5-2.9 12.4-6.1 17.7-9.7a238.8 238.8 0 0 0 1.3-9.7V75l.3-2.4.1-1.1a372.5 372.5 0 0 0 1.2-13.5c.5-13 0-22.8-1-35.9-.1-1-.6-1.5-1.3-1.6zm-111.5 3c-18 1-46.5 8.3-49.6 11.6C40 39.7 38 54.5 37 65c-.2 1 0 1.4-1.9 1.7-1.8.3-7.2.4-7.4 2.7-.6 5.5-.5 7.5-.5 13.4 0 1.3.6 2.1 2.2 1.8.8-.1 3.5-.8 5.3-1 2.2-.4 2.4.4 2.3 2.5l.3 8.8c5.6 2.4 11.6 4.6 17.9 6.5-1-5.9-1.6-12-2-18.6 0-1.2-.2-2.1 1.7-2.4 1.8-.3 7.3-.8 10.4-1.1h.5l2.4-.3 1.8-.1a2.2 2.2 0 0 0 1.3-.6 1.4 1.4 0 0 0 .2-.4l.1-.2a2.2 2.2 0 0 0 .1-.5 17 17 0 0 0 .2-1.7l.3-3v-.3l.7-7.7c.4-3-1-2.6-2-2.6a663 663 0 0 1-15.5 2.6c-2.8.4-2.8-1.6-2.7-3 0-1.5.8-7 1.3-11.2.3-4.1.6-3 7.6-5.2 8.6-2.3 16.5-3.8 25-4 1.7 0 .7 1.8.7 2.2a261.7 261.7 0 0 0-6 55.6c0 1.3-.1 2-1.2 2-1.1.2-4 0-4.6 0-1.3-.1-1.5 1.3-1.4 2l.3 3a206.6 206.6 0 0 0 37.1 3.3l1.4-1 .9-.8h.1l.9-.8h.1a40 40 0 0 0 4.5-4.8l.8-1 .8-1v-.1l.7-1a37.1 37.1 0 0 0 3.6-7 25 25 0 0 0 1.2-14.2C121.6 53 99 35.2 93.4 29.2c-1.6-1.6 1.5-5.8-1.6-5.7zm9.5 31c.1 0 .3 0 .4.2 2.7 1.5 3.2 3.5 6 7.9 5 7.9 9.4 18.3 6.3 27.5-2.8 6.7-10.9 11-17.8 11.4-1.3-.2-1.7.4-1.9-2-.8-13.2 2.1-32.7 6-44.4.2-.4.6-.6 1-.6zm100.9 33.8c-4 3.5-6.3 9.5-8.7 14.2-3.8 9.7-6 21-14.4 28-3.4 1.3-9.1-3.1-12.2-1.2 3.5 5.4 7 10.7 8.8 12.8 2.2 2.7 3.3.3 4.2-.7a110 110 0 0 0 22.3-53.1zm-46.4 19.3c-5.4.1-5.7 8.8-1.2 8.2v-3.2c.1-3.1 1.8-.8 3 1.6 1.5-2 1.5-6.1-1.5-6.6h-.3zm34.9 2.7zm-36.2 17.9c-1.4 3.9-4 7.3-7.8 9.5-4.8 3.8-13.4 6.7-13.6 13.7 2.6-1 7-2.4 8.8-3 2.2-.9 8.3-3 10.4-3.7 2.2-.8 2.6-1.5 2.5-3.2-.3-4.7-.3-9-.3-13.3zm-44 1.2c3.2 2.4 7.4 6 10.3 9.8-.4-6.4-6-10-10.3-9.8zm-46.7 1.4c.2 2 .3 3.9-.2 5.8-1 7-8.3 11-9.5 17.9l.5 1.1c3.9-2 9.8-5.4 14.9-8.2 2-1.1.5-4 0-4.8-2.1-4-4-8-5.7-11.8z"/><g style="line-height:1.25"><path fill="#fef26c" d="M212-18c.4 0 .4-.2.4-.4s-.2-.3-.4-.3h-.3v.7zm-.3.5v1h-.7v-2.8h1.1c.5 0 1 .2 1 .8 0 .5-.2.7-.5.8.3 0 .4.3.5.5l.3.7h-.8l-.2-.6c-.2-.3-.4-.4-.7-.4z" aria-label="R" font-family="sans-serif" font-size="99.3" font-weight="700" letter-spacing="0" style="-inkscape-font-specification:&quot;sans-serif Bold&quot;" transform="rotate(-1 2690 1963.7) scale(1.191)" word-spacing="0"/></g></svg>